<svg xmlns="http://www.w3.org/2000/svg" xmlns:xlink="http://www.w3.org/1999/xlink" width="28" zoomAndPan="magnify" viewBox="0 0 21 23.25" height="31" preserveAspectRatio="xMidYMid meet" version="1.0"><defs><clipPath id="b49c6b6004"><path d="M 0.328125 0 L 20.671875 0 L 20.671875 21.070312 L 0.328125 21.070312 Z M 0.328125 0 " clip-rule="nonzero"/></clipPath><clipPath id="e6b38dd45f"><path d="M 0.328125 1 L 20.671875 1 L 20.671875 21.660156 L 0.328125 21.660156 Z M 0.328125 1 " clip-rule="nonzero"/></clipPath></defs><path fill="#ffffff" d="M 19.328125 10.8125 C 19.328125 11.398438 19.269531 11.980469 19.15625 12.554688 C 19.042969 13.128906 18.875 13.6875 18.648438 14.230469 C 18.425781 14.769531 18.148438 15.285156 17.824219 15.773438 C 17.5 16.261719 17.128906 16.710938 16.714844 17.125 C 16.300781 17.539062 15.847656 17.910156 15.359375 18.238281 C 14.871094 18.5625 14.359375 18.835938 13.816406 19.0625 C 13.273438 19.285156 12.714844 19.457031 12.140625 19.570312 C 11.566406 19.683594 10.984375 19.742188 10.398438 19.742188 C 9.8125 19.742188 9.234375 19.683594 8.65625 19.570312 C 8.082031 19.457031 7.523438 19.285156 6.984375 19.0625 C 6.441406 18.835938 5.925781 18.5625 5.4375 18.238281 C 4.953125 17.910156 4.5 17.539062 4.085938 17.125 C 3.671875 16.710938 3.300781 16.261719 2.976562 15.773438 C 2.648438 15.285156 2.375 14.769531 2.152344 14.230469 C 1.925781 13.6875 1.757812 13.128906 1.640625 12.554688 C 1.527344 11.980469 1.472656 11.398438 1.472656 10.8125 C 1.472656 10.226562 1.527344 9.644531 1.640625 9.070312 C 1.757812 8.496094 1.925781 7.9375 2.152344 7.394531 C 2.375 6.855469 2.648438 6.339844 2.976562 5.851562 C 3.300781 5.363281 3.671875 4.914062 4.085938 4.5 C 4.5 4.085938 4.953125 3.714844 5.4375 3.386719 C 5.925781 3.0625 6.441406 2.789062 6.984375 2.5625 C 7.523438 2.339844 8.082031 2.167969 8.65625 2.054688 C 9.234375 1.941406 9.8125 1.882812 10.398438 1.882812 C 10.984375 1.882812 11.566406 1.941406 12.140625 2.054688 C 12.714844 2.167969 13.273438 2.339844 13.816406 2.5625 C 14.359375 2.789062 14.871094 3.0625 15.359375 3.386719 C 15.847656 3.714844 16.300781 4.085938 16.714844 4.5 C 17.128906 4.914062 17.5 5.363281 17.824219 5.851562 C 18.148438 6.339844 18.425781 6.855469 18.648438 7.394531 C 18.875 7.9375 19.042969 8.496094 19.15625 9.070312 C 19.269531 9.644531 19.328125 10.226562 19.328125 10.8125 Z M 19.328125 10.8125 " fill-opacity="1" fill-rule="nonzero"/><g clip-path="url(#b49c6b6004)"><path fill="#2c2255" d="M 17.917969 4.417969 C 17.234375 3.621094 16.445312 2.949219 15.550781 2.398438 C 14.652344 1.851562 13.695312 1.457031 12.671875 1.214844 C 11.648438 0.972656 10.617188 0.890625 9.566406 0.976562 C 8.519531 1.0625 7.511719 1.304688 6.542969 1.710938 C 4.75 2.464844 3.292969 3.640625 2.179688 5.238281 C 1.964844 5.550781 1.761719 5.875 1.582031 6.207031 C 0.808594 7.636719 0.398438 9.164062 0.355469 10.785156 C 0.355469 10.882812 0.347656 10.980469 0.347656 11.082031 C 0.34375 11.644531 0.390625 12.207031 0.480469 12.761719 C 0.574219 13.320312 0.710938 13.867188 0.894531 14.398438 C 1.078125 14.933594 1.300781 15.449219 1.570312 15.945312 C 1.839844 16.441406 2.148438 16.910156 2.496094 17.355469 C 2.84375 17.800781 3.226562 18.210938 3.644531 18.59375 C 4.0625 18.972656 4.507812 19.316406 4.980469 19.621094 C 5.457031 19.925781 5.953125 20.191406 6.472656 20.414062 C 6.988281 20.636719 7.523438 20.816406 8.070312 20.949219 C 8.828125 21.128906 9.59375 21.21875 10.367188 21.21875 C 15.902344 21.21875 20.390625 16.679688 20.390625 11.078125 C 20.394531 9.855469 20.179688 8.671875 19.757812 7.527344 C 19.332031 6.378906 18.71875 5.34375 17.917969 4.417969 Z M 14.089844 12.136719 L 11.589844 12.136719 L 11.589844 14.710938 L 9.015625 14.710938 L 9.015625 12.136719 L 6.515625 12.136719 L 6.515625 9.621094 L 9.015625 9.621094 L 9.015625 7.050781 L 11.589844 7.050781 L 11.589844 9.621094 L 14.089844 9.621094 Z M 14.089844 12.136719 " fill-opacity="1" fill-rule="nonzero"/></g><path fill="#ffffff" d="M 19.328125 11.402344 C 19.328125 11.988281 19.269531 12.570312 19.15625 13.144531 C 19.042969 13.71875 18.875 14.277344 18.648438 14.820312 C 18.425781 15.359375 18.148438 15.875 17.824219 16.363281 C 17.5 16.851562 17.128906 17.300781 16.714844 17.714844 C 16.300781 18.128906 15.847656 18.5 15.359375 18.828125 C 14.871094 19.152344 14.359375 19.425781 13.816406 19.652344 C 13.273438 19.875 12.714844 20.046875 12.140625 20.160156 C 11.566406 20.273438 10.984375 20.332031 10.398438 20.332031 C 9.8125 20.332031 9.234375 20.273438 8.65625 20.160156 C 8.082031 20.046875 7.523438 19.875 6.984375 19.652344 C 6.441406 19.425781 5.925781 19.152344 5.4375 18.828125 C 4.953125 18.5 4.5 18.128906 4.085938 17.714844 C 3.671875 17.300781 3.300781 16.851562 2.976562 16.363281 C 2.648438 15.875 2.375 15.359375 2.152344 14.820312 C 1.925781 14.277344 1.757812 13.71875 1.640625 13.144531 C 1.527344 12.570312 1.472656 11.988281 1.472656 11.402344 C 1.472656 10.816406 1.527344 10.234375 1.640625 9.660156 C 1.757812 9.085938 1.925781 8.527344 2.152344 7.984375 C 2.375 7.445312 2.648438 6.929688 2.976562 6.441406 C 3.300781 5.953125 3.671875 5.503906 4.085938 5.089844 C 4.5 4.675781 4.953125 4.304688 5.4375 3.976562 C 5.925781 3.652344 6.441406 3.378906 6.984375 3.152344 C 7.523438 2.929688 8.082031 2.757812 8.65625 2.644531 C 9.234375 2.53125 9.8125 2.472656 10.398438 2.472656 C 10.984375 2.472656 11.566406 2.53125 12.140625 2.644531 C 12.714844 2.757812 13.273438 2.929688 13.816406 3.152344 C 14.359375 3.378906 14.871094 3.652344 15.359375 3.976562 C 15.847656 4.304688 16.300781 4.675781 16.714844 5.089844 C 17.128906 5.503906 17.5 5.953125 17.824219 6.441406 C 18.148438 6.929688 18.425781 7.445312 18.648438 7.984375 C 18.875 8.527344 19.042969 9.085938 19.15625 9.660156 C 19.269531 10.234375 19.328125 10.816406 19.328125 11.402344 Z M 19.328125 11.402344 " fill-opacity="1" fill-rule="nonzero"/><g clip-path="url(#e6b38dd45f)"><path fill="#2c2255" d="M 17.917969 5.007812 C 17.234375 4.210938 16.445312 3.539062 15.550781 2.988281 C 14.652344 2.441406 13.695312 2.046875 12.671875 1.804688 C 11.648438 1.558594 10.617188 1.480469 9.566406 1.566406 C 8.519531 1.652344 7.511719 1.894531 6.542969 2.300781 C 4.75 3.054688 3.292969 4.230469 2.179688 5.828125 C 1.964844 6.140625 1.761719 6.464844 1.582031 6.796875 C 0.808594 8.226562 0.398438 9.753906 0.355469 11.375 C 0.355469 11.472656 0.347656 11.570312 0.347656 11.671875 C 0.34375 12.234375 0.390625 12.796875 0.480469 13.351562 C 0.574219 13.910156 0.710938 14.457031 0.894531 14.988281 C 1.078125 15.523438 1.300781 16.039062 1.570312 16.535156 C 1.839844 17.03125 2.148438 17.5 2.496094 17.945312 C 2.84375 18.390625 3.226562 18.800781 3.644531 19.183594 C 4.0625 19.5625 4.507812 19.90625 4.980469 20.210938 C 5.457031 20.515625 5.953125 20.78125 6.472656 21.003906 C 6.988281 21.226562 7.523438 21.40625 8.070312 21.539062 C 8.828125 21.71875 9.59375 21.808594 10.367188 21.808594 C 15.902344 21.808594 20.390625 17.269531 20.390625 11.667969 C 20.394531 10.445312 20.179688 9.261719 19.757812 8.117188 C 19.332031 6.96875 18.71875 5.933594 17.917969 5.007812 Z M 14.089844 12.726562 L 11.589844 12.726562 L 11.589844 15.300781 L 9.015625 15.300781 L 9.015625 12.726562 L 6.515625 12.726562 L 6.515625 10.210938 L 9.015625 10.210938 L 9.015625 7.640625 L 11.589844 7.640625 L 11.589844 10.210938 L 14.089844 10.210938 Z M 14.089844 12.726562 " fill-opacity="1" fill-rule="nonzero"/></g></svg>