<svg xmlns="http://www.w3.org/2000/svg" xmlns:xlink="http://www.w3.org/1999/xlink" width="28" zoomAndPan="magnify" viewBox="0 0 21 17.999999" height="24" preserveAspectRatio="xMidYMid meet" version="1.0"><defs><clipPath id="f85db3a0ad"><path d="M 0 1.445312 L 21 1.445312 L 21 17.945312 L 0 17.945312 Z M 0 1.445312 " clip-rule="nonzero"/></clipPath><clipPath id="ead2848f4d"><path d="M 0 0 L 21 0 L 21 16.5 L 0 16.5 Z M 0 0 " clip-rule="nonzero"/></clipPath></defs><g clip-path="url(#f85db3a0ad)"><path fill="#2c2255" d="M 8.273438 1.445312 L 2.070312 1.445312 C 0.925781 1.445312 0.0117188 2.371094 0.0117188 3.515625 L 0 15.925781 C 0 17.066406 0.925781 17.992188 2.070312 17.992188 L 18.613281 17.992188 C 19.757812 17.992188 20.683594 17.066406 20.683594 15.925781 L 20.683594 5.582031 C 20.683594 4.441406 19.757812 3.515625 18.613281 3.515625 L 10.339844 3.515625 Z M 8.273438 1.445312 " fill-opacity="1" fill-rule="nonzero"/></g><g clip-path="url(#ead2848f4d)"><path fill="#2c2255" d="M 8.273438 0 L 2.070312 0 C 0.925781 0 0.0117188 0.925781 0.0117188 2.066406 L 0 14.476562 C 0 15.621094 0.925781 16.546875 2.070312 16.546875 L 18.613281 16.546875 C 19.757812 16.546875 20.683594 15.621094 20.683594 14.476562 L 20.683594 4.136719 C 20.683594 2.992188 19.757812 2.066406 18.613281 2.066406 L 10.339844 2.066406 Z M 8.273438 0 " fill-opacity="1" fill-rule="nonzero"/></g></svg>