<svg xmlns="http://www.w3.org/2000/svg" xmlns:xlink="http://www.w3.org/1999/xlink" width="30" zoomAndPan="magnify" viewBox="0 0 22.5 22.5" height="30" preserveAspectRatio="xMidYMid meet" version="1.0"><defs><clipPath id="7c0521f46d"><path d="M 0 0 L 21.277344 0 L 21.277344 21.277344 L 0 21.277344 Z M 0 0 " clip-rule="nonzero"/></clipPath><clipPath id="2327b925b4"><path d="M 0 0 L 21.277344 0 L 21.277344 21.277344 L 0 21.277344 Z M 0 0 " clip-rule="nonzero"/></clipPath></defs><path fill="#2c2255" d="M 19.328125 10.773438 C 19.328125 15.476562 15.519531 19.285156 10.816406 19.285156 C 6.117188 19.285156 2.308594 15.476562 2.308594 10.773438 C 2.308594 6.074219 6.117188 2.265625 10.816406 2.265625 C 15.519531 2.265625 19.328125 6.074219 19.328125 10.773438 " fill-opacity="1" fill-rule="nonzero"/><g clip-path="url(#7c0521f46d)"><path fill="#2c2255" d="M 21.1875 10.773438 C 21.167969 14.660156 18.980469 18.222656 15.535156 20.011719 C 12.050781 21.824219 7.742188 21.394531 4.605469 19.082031 C 1.449219 16.753906 -0.0742188 12.703125 0.621094 8.867188 C 1.308594 5.089844 4.15625 1.972656 7.808594 0.847656 C 10.945312 -0.117188 14.402344 0.53125 17.03125 2.472656 C 19.644531 4.402344 21.167969 7.542969 21.1875 10.773438 C 21.1875 11.046875 21.609375 11.046875 21.605469 10.773438 C 21.585938 7.054688 19.660156 3.597656 16.515625 1.613281 C 13.335938 -0.394531 9.226562 -0.515625 5.890625 1.175781 C 2.601562 2.839844 0.410156 6.1875 0.0703125 9.839844 C -0.277344 13.558594 1.429688 17.207031 4.394531 19.441406 C 7.402344 21.710938 11.527344 22.167969 14.992188 20.726562 C 18.378906 19.316406 20.839844 16.175781 21.457031 12.570312 C 21.558594 11.976562 21.601562 11.375 21.605469 10.777344 C 21.609375 10.503906 21.1875 10.503906 21.1875 10.777344 " fill-opacity="1" fill-rule="nonzero"/></g><path fill="#2c2255" d="M 19.328125 10.773438 C 19.328125 15.476562 15.519531 19.285156 10.816406 19.285156 C 6.117188 19.285156 2.308594 15.476562 2.308594 10.773438 C 2.308594 6.074219 6.117188 2.265625 10.816406 2.265625 C 15.519531 2.265625 19.328125 6.074219 19.328125 10.773438 " fill-opacity="1" fill-rule="nonzero"/><g clip-path="url(#2327b925b4)"><path fill="#2c2255" d="M 21.1875 10.773438 C 21.167969 14.660156 18.980469 18.222656 15.535156 20.011719 C 12.050781 21.824219 7.742188 21.394531 4.605469 19.082031 C 1.449219 16.753906 -0.0742188 12.703125 0.621094 8.867188 C 1.308594 5.089844 4.15625 1.972656 7.808594 0.847656 C 10.945312 -0.117188 14.402344 0.53125 17.03125 2.472656 C 19.644531 4.402344 21.167969 7.542969 21.1875 10.773438 C 21.1875 11.046875 21.609375 11.046875 21.605469 10.773438 C 21.585938 7.054688 19.660156 3.597656 16.515625 1.613281 C 13.335938 -0.394531 9.226562 -0.515625 5.890625 1.175781 C 2.601562 2.839844 0.410156 6.1875 0.0703125 9.839844 C -0.277344 13.558594 1.429688 17.207031 4.394531 19.441406 C 7.402344 21.710938 11.527344 22.167969 14.992188 20.726562 C 18.378906 19.316406 20.839844 16.175781 21.457031 12.570312 C 21.558594 11.976562 21.601562 11.375 21.605469 10.777344 C 21.609375 10.503906 21.1875 10.503906 21.1875 10.777344 " fill-opacity="1" fill-rule="nonzero"/></g></svg>