<svg xmlns="http://www.w3.org/2000/svg" xmlns:xlink="http://www.w3.org/1999/xlink" width="17" zoomAndPan="magnify" viewBox="0 0 12.75 19.5" height="26" preserveAspectRatio="xMidYMid meet" version="1.0"><defs><clipPath id="ac07b530f0"><path d="M 0.0390625 1.070312 L 11 1.070312 L 11 18.617188 L 0.0390625 18.617188 Z M 0.0390625 1.070312 " clip-rule="nonzero"/></clipPath><clipPath id="35cc4c71b6"><path d="M 0.0390625 1.070312 L 11.738281 1.070312 L 11.738281 18.617188 L 0.0390625 18.617188 Z M 0.0390625 1.070312 " clip-rule="nonzero"/></clipPath><clipPath id="370fe9ca99"><path d="M 0.0390625 0 L 11 0 L 11 17 L 0.0390625 17 Z M 0.0390625 0 " clip-rule="nonzero"/></clipPath><clipPath id="271289e0c5"><path d="M 0.0390625 0 L 11.738281 0 L 11.738281 17.550781 L 0.0390625 17.550781 Z M 0.0390625 0 " clip-rule="nonzero"/></clipPath></defs><g clip-path="url(#ac07b530f0)"><path fill="#ff914d" d="M 10.996094 17.582031 C 10.996094 18.027344 10.699219 18.175781 10.332031 17.953125 L 6.257812 15.730469 C 5.886719 15.507812 5.296875 15.507812 4.925781 15.730469 L 0.777344 17.953125 C 0.40625 18.175781 0.113281 17.953125 0.113281 17.582031 L 0.113281 2.179688 C 0.113281 1.734375 0.480469 1.4375 0.851562 1.4375 L 10.183594 1.4375 C 10.625 1.4375 10.921875 1.808594 10.921875 2.179688 L 10.921875 17.582031 Z M 10.996094 17.582031 " fill-opacity="1" fill-rule="nonzero"/></g><g clip-path="url(#35cc4c71b6)"><path fill="#ff914d" d="M 0.777344 18.542969 C 0.628906 18.542969 0.480469 18.542969 0.40625 18.472656 C 0.1875 18.324219 0.0390625 18.027344 0.0390625 17.730469 L 0.0390625 2.253906 C 0.0390625 1.660156 0.554688 1.144531 1.222656 1.144531 L 10.550781 1.144531 C 11.21875 1.144531 11.738281 1.660156 11.738281 2.253906 L 11.738281 17.65625 C 11.738281 18.027344 11.589844 18.25 11.367188 18.398438 C 11.144531 18.542969 10.773438 18.542969 10.480469 18.398438 L 6.40625 16.175781 C 6.183594 16.027344 5.664062 16.027344 5.441406 16.175781 L 1.296875 18.398438 C 1.074219 18.472656 0.925781 18.542969 0.777344 18.542969 Z M 1.148438 1.882812 C 0.925781 1.882812 0.777344 2.03125 0.777344 2.253906 L 0.777344 17.65625 C 0.777344 17.730469 0.777344 17.730469 0.777344 17.730469 C 0.777344 17.730469 0.851562 17.730469 0.851562 17.65625 L 5 15.433594 C 5.515625 15.136719 6.257812 15.210938 6.703125 15.433594 L 10.773438 17.65625 C 10.847656 17.65625 10.847656 17.65625 10.847656 17.65625 C 10.847656 17.65625 10.847656 17.582031 10.847656 17.582031 L 10.847656 2.253906 C 10.847656 2.03125 10.699219 1.882812 10.480469 1.882812 Z M 1.148438 1.882812 " fill-opacity="1" fill-rule="nonzero"/></g><g clip-path="url(#370fe9ca99)"><path fill="#ff914d" d="M 10.996094 16.511719 C 10.996094 16.957031 10.699219 17.105469 10.332031 16.882812 L 6.257812 14.660156 C 5.886719 14.441406 5.296875 14.441406 4.925781 14.660156 L 0.777344 16.882812 C 0.40625 17.105469 0.113281 16.882812 0.113281 16.511719 L 0.113281 1.109375 C 0.113281 0.667969 0.480469 0.371094 0.851562 0.371094 L 10.183594 0.371094 C 10.625 0.371094 10.921875 0.742188 10.921875 1.109375 L 10.921875 16.511719 Z M 10.996094 16.511719 " fill-opacity="1" fill-rule="nonzero"/></g><g clip-path="url(#271289e0c5)"><path fill="#ff914d" d="M 0.777344 17.476562 C 0.628906 17.476562 0.480469 17.476562 0.40625 17.402344 C 0.1875 17.253906 0.0390625 16.957031 0.0390625 16.660156 L 0.0390625 1.183594 C 0.0390625 0.59375 0.554688 0.0742188 1.222656 0.0742188 L 10.550781 0.0742188 C 11.21875 0.0742188 11.738281 0.59375 11.738281 1.183594 L 11.738281 16.585938 C 11.738281 16.957031 11.589844 17.179688 11.367188 17.328125 C 11.144531 17.476562 10.773438 17.476562 10.480469 17.328125 L 6.40625 15.105469 C 6.183594 14.957031 5.664062 14.957031 5.441406 15.105469 L 1.296875 17.328125 C 1.074219 17.402344 0.925781 17.476562 0.777344 17.476562 Z M 1.148438 0.816406 C 0.925781 0.816406 0.777344 0.960938 0.777344 1.183594 L 0.777344 16.585938 C 0.777344 16.660156 0.777344 16.660156 0.777344 16.660156 C 0.777344 16.660156 0.851562 16.660156 0.851562 16.585938 L 5 14.367188 C 5.515625 14.070312 6.257812 14.144531 6.703125 14.367188 L 10.773438 16.585938 C 10.847656 16.585938 10.847656 16.585938 10.847656 16.585938 C 10.847656 16.585938 10.847656 16.511719 10.847656 16.511719 L 10.847656 1.183594 C 10.847656 0.960938 10.699219 0.816406 10.480469 0.816406 Z M 1.148438 0.816406 " fill-opacity="1" fill-rule="nonzero"/></g></svg>