<svg xmlns="http://www.w3.org/2000/svg" xmlns:xlink="http://www.w3.org/1999/xlink" width="17" zoomAndPan="magnify" viewBox="0 0 12.75 17.999999" height="24" preserveAspectRatio="xMidYMid meet" version="1.0"><defs><clipPath id="a4af702689"><path d="M 0 0.171875 L 11.769531 0.171875 L 11.769531 17.824219 L 0 17.824219 Z M 0 0.171875 " clip-rule="nonzero"/></clipPath></defs><g clip-path="url(#a4af702689)"><path fill="#ff3131" d="M 11.023438 16.785156 C 11.023438 17.230469 10.726562 17.378906 10.355469 17.15625 L 6.257812 14.921875 C 5.882812 14.699219 5.289062 14.699219 4.917969 14.921875 L 0.746094 17.15625 C 0.371094 17.378906 0.0742188 17.15625 0.0742188 16.785156 L 0.0742188 1.289062 C 0.0742188 0.84375 0.445312 0.546875 0.820312 0.546875 L 10.203125 0.546875 C 10.652344 0.546875 10.949219 0.917969 10.949219 1.289062 L 10.949219 16.785156 Z M 11.023438 16.785156 " fill-opacity="1" fill-rule="nonzero"/><path fill="#ff3131" d="M 0.746094 17.753906 C 0.597656 17.753906 0.445312 17.753906 0.371094 17.679688 C 0.148438 17.527344 0 17.230469 0 16.933594 L 0 1.363281 C 0 0.769531 0.519531 0.246094 1.191406 0.246094 L 10.578125 0.246094 C 11.246094 0.246094 11.769531 0.769531 11.769531 1.363281 L 11.769531 16.859375 C 11.769531 17.230469 11.621094 17.453125 11.398438 17.601562 C 11.171875 17.753906 10.800781 17.753906 10.503906 17.601562 L 6.40625 15.367188 C 6.183594 15.21875 5.660156 15.21875 5.4375 15.367188 L 1.265625 17.601562 C 1.042969 17.679688 0.894531 17.753906 0.746094 17.753906 Z M 1.117188 0.992188 C 0.894531 0.992188 0.746094 1.140625 0.746094 1.363281 L 0.746094 16.859375 C 0.746094 16.933594 0.746094 16.933594 0.746094 16.933594 C 0.746094 16.933594 0.820312 16.933594 0.820312 16.859375 L 4.992188 14.625 C 5.511719 14.324219 6.257812 14.402344 6.703125 14.625 L 10.800781 16.859375 C 10.875 16.859375 10.875 16.859375 10.875 16.859375 C 10.875 16.859375 10.875 16.785156 10.875 16.785156 L 10.875 1.363281 C 10.875 1.140625 10.726562 0.992188 10.503906 0.992188 Z M 1.117188 0.992188 " fill-opacity="1" fill-rule="nonzero"/><path fill="#ff3131" d="M 11.023438 16.785156 C 11.023438 17.230469 10.726562 17.378906 10.355469 17.15625 L 6.257812 14.921875 C 5.882812 14.699219 5.289062 14.699219 4.917969 14.921875 L 0.746094 17.15625 C 0.371094 17.378906 0.0742188 17.15625 0.0742188 16.785156 L 0.0742188 1.289062 C 0.0742188 0.84375 0.445312 0.546875 0.820312 0.546875 L 10.203125 0.546875 C 10.652344 0.546875 10.949219 0.917969 10.949219 1.289062 L 10.949219 16.785156 Z M 11.023438 16.785156 " fill-opacity="1" fill-rule="nonzero"/><path fill="#ff3131" d="M 0.746094 17.753906 C 0.597656 17.753906 0.445312 17.753906 0.371094 17.679688 C 0.148438 17.527344 0 17.230469 0 16.933594 L 0 1.363281 C 0 0.769531 0.519531 0.246094 1.191406 0.246094 L 10.578125 0.246094 C 11.246094 0.246094 11.769531 0.769531 11.769531 1.363281 L 11.769531 16.859375 C 11.769531 17.230469 11.621094 17.453125 11.398438 17.601562 C 11.171875 17.753906 10.800781 17.753906 10.503906 17.601562 L 6.40625 15.367188 C 6.183594 15.21875 5.660156 15.21875 5.4375 15.367188 L 1.265625 17.601562 C 1.042969 17.679688 0.894531 17.753906 0.746094 17.753906 Z M 1.117188 0.992188 C 0.894531 0.992188 0.746094 1.140625 0.746094 1.363281 L 0.746094 16.859375 C 0.746094 16.933594 0.746094 16.933594 0.746094 16.933594 C 0.746094 16.933594 0.820312 16.933594 0.820312 16.859375 L 4.992188 14.625 C 5.511719 14.324219 6.257812 14.402344 6.703125 14.625 L 10.800781 16.859375 C 10.875 16.859375 10.875 16.859375 10.875 16.859375 C 10.875 16.859375 10.875 16.785156 10.875 16.785156 L 10.875 1.363281 C 10.875 1.140625 10.726562 0.992188 10.503906 0.992188 Z M 1.117188 0.992188 " fill-opacity="1" fill-rule="nonzero"/></g></svg>